<?xml version="1.0" encoding="UTF-8"?>
<!DOCTYPE svg PUBLIC "-//W3C//DTD SVG 1.1//EN" "http://www.w3.org/Graphics/SVG/1.1/DTD/svg11.dtd">
<svg xmlns="http://www.w3.org/2000/svg" version="1.1" width="200px" height="200px" style="shape-rendering:geometricPrecision; text-rendering:geometricPrecision; image-rendering:optimizeQuality; fill-rule:evenodd; clip-rule:evenodd" xmlns:xlink="http://www.w3.org/1999/xlink">
<g><path style="opacity:0.948" fill="#f27c15" d="M 11.5,168.5 C 69.7629,167.671 128.096,167.171 186.5,167C 179.31,161.908 171.976,157.074 164.5,152.5C 158.464,147.809 152.131,143.475 145.5,139.5C 140.709,135.932 135.709,132.598 130.5,129.5C 122.795,123.808 114.795,118.474 106.5,113.5C 99.2038,108.513 91.8704,103.513 84.5,98.5C 77.9888,94.0774 71.6554,89.4108 65.5,84.5C 79.8914,63.4038 94.0581,42.0705 108,20.5C 122.733,44.9077 137.066,69.5743 151,94.5C 155.421,92.0391 159.921,89.7058 164.5,87.5C 170.972,108.048 177.138,128.715 183,149.5C 186.5,155.833 190,162.167 193.5,168.5C 132.668,169.832 72.0014,169.832 11.5,168.5 Z"/></g>
<g><path style="opacity:0.69" fill="#faa962" d="M 53.5,38.5 C 57.4807,39.6332 61.1474,41.4665 64.5,44C 67.9444,44.4689 71.2778,43.9689 74.5,42.5C 78.5238,43.3547 79.1905,45.1881 76.5,48C 68.3548,50.7639 60.0215,52.0973 51.5,52C 49.5968,50.5527 47.9301,48.886 46.5,47C 47.1079,46.1301 47.9412,45.6301 49,45.5C 51.6508,47.164 54.4841,47.664 57.5,47C 55.9544,44.7432 54.2877,42.5765 52.5,40.5C 52.8627,39.8165 53.1961,39.1499 53.5,38.5 Z"/></g>
<g><path style="opacity:1" fill="#f38626" d="M 65.5,84.5 C 71.6554,89.4108 77.9888,94.0774 84.5,98.5C 67.9105,99.4848 51.2439,99.8181 34.5,99.5C 36.2949,90.7828 38.2949,82.1161 40.5,73.5C 40.2222,71.6536 40.8888,70.3202 42.5,69.5C 50.0244,74.7593 57.691,79.7593 65.5,84.5 Z"/></g>
<g><path style="opacity:1" fill="#f58d33" d="M 40.5,73.5 C 38.2949,82.1161 36.2949,90.7828 34.5,99.5C 51.2439,99.8181 67.9105,99.4848 84.5,98.5C 91.8704,103.513 99.2038,108.513 106.5,113.5C 80.9077,114.49 55.241,114.824 29.5,114.5C 29.5,112.5 29.5,110.5 29.5,108.5C 32.5944,96.5552 36.2611,84.8885 40.5,73.5 Z"/></g>
<g><path style="opacity:1" fill="#f69540" d="M 29.5,108.5 C 29.5,110.5 29.5,112.5 29.5,114.5C 55.241,114.824 80.9077,114.49 106.5,113.5C 114.795,118.474 122.795,123.808 130.5,129.5C 95.4196,129.594 60.253,129.928 25,130.5C 24.5045,128.527 24.3379,126.527 24.5,124.5C 25.3904,118.834 27.057,113.5 29.5,108.5 Z"/></g>
<g><path style="opacity:1" fill="#f79a48" d="M 24.5,124.5 C 24.3379,126.527 24.5045,128.527 25,130.5C 60.253,129.928 95.4196,129.594 130.5,129.5C 135.709,132.598 140.709,135.932 145.5,139.5C 103.919,140.423 62.2519,140.756 20.5,140.5C 21.7066,136.214 22.7066,131.88 23.5,127.5C 23.2627,126.209 23.596,125.209 24.5,124.5 Z"/></g>
<g><path style="opacity:1" fill="#f8a053" d="M 23.5,127.5 C 22.7066,131.88 21.7066,136.214 20.5,140.5C 62.2519,140.756 103.919,140.423 145.5,139.5C 152.131,143.475 158.464,147.809 164.5,152.5C 115.333,153.164 66.1666,153.831 17,154.5C 16.5065,152.866 16.3398,151.199 16.5,149.5C 18.0594,141.826 20.3927,134.492 23.5,127.5 Z"/></g>
<g><path style="opacity:1" fill="#f9a65d" d="M 16.5,149.5 C 16.3398,151.199 16.5065,152.866 17,154.5C 66.1666,153.831 115.333,153.164 164.5,152.5C 171.976,157.074 179.31,161.908 186.5,167C 128.096,167.171 69.7629,167.671 11.5,168.5C 10.4017,167.399 10.235,166.066 11,164.5C 12.5678,159.286 14.4011,154.286 16.5,149.5 Z"/></g>
</svg>
