<svg xmlns="http://www.w3.org/2000/svg" viewBox="0 0 1185.89 1156.85"><defs><style>.cls-1{fill:#a9fff4;}.cls-2{fill:#c6e4ff;}</style></defs><g id="图层_2" data-name="图层 2"><g id="图层_1-2" data-name="图层 1"><path class="cls-1" d="M217.63,1010.15C190.32,975.16,161.9,941,135.94,905,84.83,834.21,48,756.57,31.18,670.42,9.53,559.19,24.63,451.77,69.68,348.68c17.1-39.12,38.12-76.61,58.81-114,18.23-33,18.4-59-10.56-83.32-30.44-25.56-65.49-45.59-98.24-68.45C12.13,77.6-1.09,68.28.07,65c3.29-9.32,11.27-18.94,20-24,30.09-17.63,63.35-14.74,94.82-6.39,48.65,12.9,96.69,28.41,144.25,45C280.26,86.88,296,87.71,315.8,73,376.47,28.13,448.14,11.6,521.58,3.86c91.07-9.6,180.86-1.78,267.67,29.06C832.64,48.33,872.34,70.21,903.9,105c11.87,13.08,12.64,23-.47,36.89-31.5,33.3-69.46,55.19-113.26,65.5C711.41,225.94,660.42,275.68,630,347.69,606.63,403,587.57,460.21,551.73,509.51c-35.47,48.79-80.59,83.23-140.81,94.78-9.54,1.83-19.91-.69-29.9-1.2,1-9.3.48-19,3.13-27.82,7.76-25.72,16.52-51.14,25.4-76.5,4.38-12.53-.45-16.63-12.39-16.22-7.59.26-15.21.37-22.79,0-40.08-2-60.08-18.43-70.16-57.6-1.72-6.69-3-13.48-4.6-20.2-10.21-43.42-40.78-55.82-78.94-31.27C190.3,393,168.34,420.5,151.52,452c-26.89,50.38-42.33,103.71-35.66,161.31,1.27,10.95,9.71,21.06,14.84,31.57,9.07-7,19.33-12.84,27-21.13,14-15.27,26.53-31.95,43.52-46.36C161.94,724.07,142.73,868,222.91,1007.35ZM609.3,243.88c38-4.29,78.51-19.9,109-55.09,22.11-25.5,15.1-49.73-17.16-57.54-46.53-11.26-90.67-2.79-130,24.81-21.25,14.92-30,41.18-22.78,59.79C555.4,233.86,574.82,244.09,609.3,243.88Z"/><path class="cls-2" d="M982.18,577.78c41.92-142.68,61.72-284.51-15.81-422.65l6-2.93c27.22,35.07,56.05,69,81.33,105.44,54.67,78.73,93.46,164.32,106,260.54,13.17,101.44-2.71,198.62-43.54,291.6-16.91,38.49-37.46,75.48-57.85,112.31-18.72,33.81-18.64,60.22,11.25,85.22,30.51,25.51,65.64,45.45,98.46,68.25,7,4.87,18.89,13.25,17.84,17-2.44,8.75-10,18.07-18,22.93-32.85,19.86-68.77,14.43-102.78,5.53-46.69-12.22-92.64-27.63-138.15-43.78-20.54-7.29-35.95-7.51-55,6.24-65.37,47.27-141.59,64.23-220.3,70.68-102.16,8.38-202.12-1.92-294.87-48.54C329,1091.72,305.53,1069,281,1049.12c-11.9-9.63-9.75-20.11.91-31.68C313.46,983.19,352,961,396.64,950.39,476,931.53,527.38,881.18,557.72,808.12c22.78-54.85,41.89-111.24,77.42-159.87,34.2-46.81,77.21-80.73,135-93.35,6.72-1.47,13.61-2.19,20.46-3,16.08-2,20,5.6,15.19,19.7-9.1,26.82-19,53.42-27.2,80.5-6.74,22.11-4.86,23.63,18.36,22.54,52-2.44,76.43,16.41,87.7,67.67,13.14,59.78,49.43,72.74,95.54,31,70.84-64.07,100.62-145,88.73-240.18-1-7.71-8.79-18-15.71-20.34-4.77-1.62-14.87,7.25-20.17,13.48-15.19,17.84-29.14,36.73-43.58,55.21Zm-471.3,454c44.84-2.65,83-8,112.58-37.27,13.89-13.75,22-30.83,15.74-50.63-6.42-20.24-23.69-27.69-43-30.66-41.08-6.3-113.88,28.49-134.69,64-10.78,18.44-6.61,35.84,13.11,44.6C487.52,1027.64,502.16,1029.53,510.88,1031.81Z"/></g></g></svg>